<svg width="145" height="157" viewBox="0 0 145 157" fill="none" xmlns="http://www.w3.org/2000/svg">
<path d="M46.5 58.5H143.5V133C143.5 145.426 133.426 155.5 121 155.5H46.5V58.5Z" fill="#A4F9CC" stroke="#53F68A" stroke-width="3"/>
<path d="M67.8409 75.4596C50.0569 88.5653 25.0159 84.7728 11.9102 66.9888L0.137279 51.0133L11.7331 42.4679C29.5171 29.3622 54.5582 33.1547 67.6638 50.9387L79.4368 66.9142L67.8409 75.4596Z" fill="#42EE7D"/>
<path d="M46.5743 60.4279C43.8769 68.9667 34.7682 73.7022 26.2294 71.0048L24.6833 70.5164C27.3806 61.9776 36.4894 57.2422 45.0282 59.9395L46.5743 60.4279Z" fill="#27D964"/>
<path d="M44.3464 64.0514C36.788 59.2496 34.5534 49.2296 39.3552 41.6712L40.2247 40.3027C47.7831 45.1045 50.0177 55.1245 45.2159 62.6829L44.3464 64.0514Z" fill="#27D964"/>
<path d="M42.8561 61.785C34.3553 64.5998 25.1821 59.9904 22.3673 51.4896L21.8576 49.9504C30.3584 47.1356 39.5316 51.745 42.3464 60.2458L42.8561 61.785Z" fill="#27D964"/>
<g filter="url(#filter0_d_6_20)">
<path d="M53.8307 67.7732C40.6743 50.0267 44.3953 24.9749 62.1418 11.8185L78.0836 2.40158e-05L86.6621 11.5714C99.8185 29.3179 96.0975 54.3697 78.351 67.5261L62.4092 79.3446L53.8307 67.7732Z" fill="#42EE7D"/>
</g>
<path d="M81.1303 43.8704C76.5368 51.948 66.2648 54.7724 58.1872 50.1788L56.7246 49.3471C61.3182 41.2695 71.5901 38.4451 79.6677 43.0387L81.1303 43.8704Z" fill="#27D964"/>
<path d="M78.0819 47.0626C71.4567 40.5469 71.368 29.894 77.8837 23.2688L79.0635 22.0693C85.6887 28.585 85.7775 39.2378 79.2617 45.863L78.0819 47.0626Z" fill="#27D964"/>
<path d="M77.0626 44.439C67.825 45.4467 59.5195 38.7752 58.5118 29.5376L58.3293 27.865C67.5669 26.8572 75.8723 33.5288 76.8801 42.7664L77.0626 44.439Z" fill="#27D964"/>
<path d="M80.14 99.42V112.02H76.06V107.76H67.6V124.92H82.96V117.9H87.04V129H58.9V124.92H62.68V88.08H58.9V84H87.04V95.1H82.96V88.08H67.6V103.68H76.06V99.42H80.14Z" fill="#0D984D"/>
<path d="M124.32 84C126.96 84 128.74 84.5 129.66 85.5C130.58 86.5 131.04 88.48 131.04 91.44V95.82C131.04 98.1 130.56 99.76 129.6 100.8C129.12 101.32 128.48 101.82 127.68 102.3C126.92 102.78 125.98 103.36 124.86 104.04L111.6 112.32V124.92H115.5V129H102.9V124.92H106.68V88.14H102.9V84H124.32ZM126.66 88.14H111.6V107.52L126.66 98.22V88.14Z" fill="#0D984D"/>
<defs>
<filter id="filter0_d_6_20" x="37.9611" y="0" width="56.5707" height="87.3446" filterUnits="userSpaceOnUse" color-interpolation-filters="sRGB">
<feFlood flood-opacity="0" result="BackgroundImageFix"/>
<feColorMatrix in="SourceAlpha" type="matrix" values="0 0 0 0 0 0 0 0 0 0 0 0 0 0 0 0 0 0 127 0" result="hardAlpha"/>
<feOffset dx="-4" dy="4"/>
<feGaussianBlur stdDeviation="2"/>
<feComposite in2="hardAlpha" operator="out"/>
<feColorMatrix type="matrix" values="0 0 0 0 0 0 0 0 0 0 0 0 0 0 0 0 0 0 0.25 0"/>
<feBlend mode="normal" in2="BackgroundImageFix" result="effect1_dropShadow_6_20"/>
<feBlend mode="normal" in="SourceGraphic" in2="effect1_dropShadow_6_20" result="shape"/>
</filter>
</defs>
</svg>
